HIERARCHY
ROOT Hips
{
	OFFSET -14.64140 90.27770 -84.91600
	CHANNELS 6 Xposition Yposition Zposition Zrotation Xrotation Yrotation
	JOINT Spine
	{
		OFFSET 0.00000 13.20850 -1.60436
		CHANNELS 3 Zrotation Xrotation Yrotation
		JOINT Spine1
		{
			OFFSET 0.00000 8.61716 0.00000
			CHANNELS 3 Zrotation Xrotation Yrotation
			JOINT Spine2
			{
				OFFSET 0.00000 8.61717 0.00000
				CHANNELS 3 Zrotation Xrotation Yrotation
				JOINT Spine3
				{
					OFFSET 0.00000 8.61717 0.00000
					CHANNELS 3 Zrotation Xrotation Yrotation
					JOINT Neck
					{
						OFFSET 0.00000 11.07920 1.10792
						CHANNELS 3 Zrotation Xrotation Yrotation
						JOINT Neck1
						{
							OFFSET 0.00000 7.08032 0.00000
							CHANNELS 3 Zrotation Xrotation Yrotation
							JOINT Head
							{
								OFFSET 0.00000 7.08031 0.00000
								CHANNELS 3 Zrotation Xrotation Yrotation
								End site
								{
									OFFSET 0.00000 0.00000 0.00000
								}
							}
						}
					}
					JOINT RightShoulder
					{
						OFFSET -0.01000 7.91373 5.19711
						CHANNELS 3 Zrotation Xrotation Yrotation
						JOINT RightArm
						{
							OFFSET -18.41580 0.00000 0.00000
							CHANNELS 3 Zrotation Xrotation Yrotation
							JOINT RightForeArm
							{
								OFFSET -29.11090 0.00000 0.00000
								CHANNELS 3 Zrotation Xrotation Yrotation
								JOINT RightHand
								{
									OFFSET -24.65040 0.00000 0.00000
									CHANNELS 3 Zrotation Xrotation Yrotation
									JOINT RightHandThumb1
									{
										OFFSET -5.35114 -0.85590 3.97906
										CHANNELS 3 Zrotation Xrotation Yrotation
										JOINT RightHandThumb2
										{
											OFFSET -4.52789 0.00000 0.00000
											CHANNELS 3 Zrotation Xrotation Yrotation
											JOINT RightHandThumb3
											{
												OFFSET -2.46976 0.00000 0.00000
												CHANNELS 3 Zrotation Xrotation Yrotation
												End site
												{
													OFFSET 0.00000 0.00000 0.00000
												}
											}
										}
									}
									JOINT RightHandIndex1
									{
										OFFSET -14.26970 0.00000 2.88139
										CHANNELS 3 Zrotation Xrotation Yrotation
										JOINT RightHandIndex2
										{
											OFFSET -5.48836 0.00000 0.00000
											CHANNELS 3 Zrotation Xrotation Yrotation
											JOINT RightHandIndex3
											{
												OFFSET -3.01859 0.00000 0.00000
												CHANNELS 3 Zrotation Xrotation Yrotation
												End site
												{
													OFFSET 0.00000 0.00000 0.00000
												}
											}
										}
									}
									JOINT RightHandMiddle1
									{
										OFFSET -14.26970 0.00000 -0.09147
										CHANNELS 3 Zrotation Xrotation Yrotation
										JOINT RightHandMiddle2
										{
											OFFSET -6.17441 0.00000 0.00000
											CHANNELS 3 Zrotation Xrotation Yrotation
											JOINT RightHandMiddle3
											{
												OFFSET -3.56743 0.00000 0.00000
												CHANNELS 3 Zrotation Xrotation Yrotation
												End site
												{
													OFFSET 0.00000 0.00000 0.00000
												}
											}
										}
									}
									JOINT RightHandRing1
									{
										OFFSET -12.69180 0.00000 -3.06433
										CHANNELS 3 Zrotation Xrotation Yrotation
										JOINT RightHandRing2
										{
											OFFSET -5.62556 0.00000 0.00000
											CHANNELS 3 Zrotation Xrotation Yrotation
											JOINT RightHandRing3
											{
												OFFSET -3.56744 0.00000 0.00000
												CHANNELS 3 Zrotation Xrotation Yrotation
												End site
												{
													OFFSET 0.00000 0.00000 0.00000
												}
											}
										}
									}
									JOINT RightHandPinky1
									{
										OFFSET -11.11390 0.00000 -6.03719
										CHANNELS 3 Zrotation Xrotation Yrotation
										JOINT RightHandPinky2
										{
											OFFSET -4.52789 0.00000 0.00000
											CHANNELS 3 Zrotation Xrotation Yrotation
											JOINT RightHandPinky3
											{
												OFFSET -2.46976 0.00000 0.00000
												CHANNELS 3 Zrotation Xrotation Yrotation
												End site
												{
													OFFSET 0.00000 0.00000 0.00000
												}
											}
										}
									}
								}
							}
						}
					}
					JOINT LeftShoulder
					{
						OFFSET 0.01000 7.91373 5.19711
						CHANNELS 3 Zrotation Xrotation Yrotation
						JOINT LeftArm
						{
							OFFSET 18.41580 0.00000 0.00000
							CHANNELS 3 Zrotation Xrotation Yrotation
							JOINT LeftForeArm
							{
								OFFSET 29.11090 0.00000 0.00000
								CHANNELS 3 Zrotation Xrotation Yrotation
								JOINT LeftHand
								{
									OFFSET 24.65040 0.00000 0.00000
									CHANNELS 3 Zrotation Xrotation Yrotation
									JOINT LeftHandThumb1
									{
										OFFSET 5.35114 -0.85590 3.97906
										CHANNELS 3 Zrotation Xrotation Yrotation
										JOINT LeftHandThumb2
										{
											OFFSET 4.52789 0.00000 0.00000
											CHANNELS 3 Zrotation Xrotation Yrotation
											JOINT LeftHandThumb3
											{
												OFFSET 2.46977 0.00000 0.00000
												CHANNELS 3 Zrotation Xrotation Yrotation
												End site
												{
													OFFSET 0.00000 0.00000 0.00000
												}
											}
										}
									}
									JOINT LeftHandIndex1
									{
										OFFSET 14.26970 0.00000 2.88139
										CHANNELS 3 Zrotation Xrotation Yrotation
										JOINT LeftHandIndex2
										{
											OFFSET 5.48836 0.00000 0.00000
											CHANNELS 3 Zrotation Xrotation Yrotation
											JOINT LeftHandIndex3
											{
												OFFSET 3.01859 0.00000 0.00000
												CHANNELS 3 Zrotation Xrotation Yrotation
												End site
												{
													OFFSET 0.00000 0.00000 0.00000
												}
											}
										}
									}
									JOINT LeftHandMiddle1
									{
										OFFSET 14.26970 0.00000 -0.09147
										CHANNELS 3 Zrotation Xrotation Yrotation
										JOINT LeftHandMiddle2
										{
											OFFSET 6.17440 0.00000 0.00000
											CHANNELS 3 Zrotation Xrotation Yrotation
											JOINT LeftHandMiddle3
											{
												OFFSET 3.56744 0.00000 0.00000
												CHANNELS 3 Zrotation Xrotation Yrotation
												End site
												{
													OFFSET 0.00000 0.00000 0.00000
												}
											}
										}
									}
									JOINT LeftHandRing1
									{
										OFFSET 12.69180 0.00000 -3.06433
										CHANNELS 3 Zrotation Xrotation Yrotation
										JOINT LeftHandRing2
										{
											OFFSET 5.62556 0.00000 0.00000
											CHANNELS 3 Zrotation Xrotation Yrotation
											JOINT LeftHandRing3
											{
												OFFSET 3.56744 0.00000 0.00000
												CHANNELS 3 Zrotation Xrotation Yrotation
												End site
												{
													OFFSET 0.00000 0.00000 0.00000
												}
											}
										}
									}
									JOINT LeftHandPinky1
									{
										OFFSET 11.11390 0.00000 -6.03719
										CHANNELS 3 Zrotation Xrotation Yrotation
										JOINT LeftHandPinky2
										{
											OFFSET 4.52789 0.00000 0.00000
											CHANNELS 3 Zrotation Xrotation Yrotation
											JOINT LeftHandPinky3
											{
												OFFSET 2.46976 0.00000 0.00000
												CHANNELS 3 Zrotation Xrotation Yrotation
												End site
												{
													OFFSET 0.00000 0.00000 0.00000
												}
											}
										}
									}
								}
							}
						}
					}
					JOINT pCube4
					{
						OFFSET 0.00000 10.91090 1.10792
						CHANNELS 3 Zrotation Xrotation Yrotation
						End site
						{
							OFFSET 0.00000 0.00000 0.00000
						}
					}
				}
			}
		}
	}
	JOINT RightUpLeg
	{
		OFFSET -9.98441 0.00000 0.00000
		CHANNELS 3 Zrotation Xrotation Yrotation
		JOINT RightLeg
		{
			OFFSET 0.00000 -42.11790 0.00000
			CHANNELS 3 Zrotation Xrotation Yrotation
			JOINT RightFoot
			{
				OFFSET 0.00000 -45.00020 -0.00001
				CHANNELS 3 Zrotation Xrotation Yrotation
				JOINT RightForeFoot
				{
					OFFSET 0.00000 -3.74820 0.00000
					CHANNELS 3 Zrotation Xrotation Yrotation
					JOINT RightToeBase
					{
						OFFSET 0.00000 0.06325 14.43120
						CHANNELS 3 Zrotation Xrotation Yrotation
						End site
						{
							OFFSET 0.00000 0.00000 0.00000
						}
					}
				}
			}
		}
	}
	JOINT LeftUpLeg
	{
		OFFSET 9.98441 0.00000 0.00000
		CHANNELS 3 Zrotation Xrotation Yrotation
		JOINT LeftLeg
		{
			OFFSET 0.00000 -42.11800 0.00000
			CHANNELS 3 Zrotation Xrotation Yrotation
			JOINT LeftFoot
			{
				OFFSET 0.00000 -45.00070 0.00000
				CHANNELS 3 Zrotation Xrotation Yrotation
				JOINT LeftForeFoot
				{
					OFFSET 0.00000 -3.74824 0.00000
					CHANNELS 3 Zrotation Xrotation Yrotation
					JOINT LeftToeBase
					{
						OFFSET 0.00000 0.06325 14.43110
						CHANNELS 3 Zrotation Xrotation Yrotation
						End site
						{
							OFFSET 0.00000 0.00000 0.00000
						}
					}
				}
			}
		}
	}
}
MOTION
Frames: 4
Frame Time: 0.050000
0.04408588342172144 -0.04970501351682361 0.017387300968546928 0.013442914968597054 -0.03189660032169242 -0.04558241566436495 4.441814228593476 3.041255716739835 -2.070241276535571 -0.7523699009107393 3.560232264581655 0.3577047960352301 -0.6395952287237769 -1.2917038127035942 0.6961145712422989 -0.4153396367041134 -0.5837011331097615 -0.3163523868572663 0.2765782657338346 13.294164014617735 -2.0507288444600538 0.42544780356102446 0.001456971822012501 -4.646995660346047 1.1533576754724244 -16.061887329638754 -0.4228012363855914 -11.149069277160866 3.7182675572297197 -17.04928250805296 78.43167110764452 -4.057232455010806 19.893783459874875 11.503363094179974 3.8113526303513954 80.33126084660721 13.185327487782239 -0.3073639075976196 -1.6500338475656795 4.575501238809493 -0.1269732446905968 -1.5685718830764335 0.02184405916614484 -0.04301760969695718 -56.265394082512614 0.034460627161280934 0.002818721585081685 -56.279923039302574 -38.78881965409101 -0.006282885515183821 0.011320735439446623 0.027807559541198817 -0.0302681962811944 0.04928862804961893 0.012745960999481595 0.04636729580581899 -0.005680430920333374 -36.72351606565523 -0.00925979377999454 0.01092946559535021 0.03501833587210112 -0.025517313393041727 -0.017589594489660375 -0.007920298864624887 0.047324483690077364 -0.04158911277386692 -19.776421026039117 -0.031466943411750235 0.0016218860320397414 -0.04856835124909347 0.04282562069795745 0.020708936994561358 -0.013354389387175931 -0.009311122629185771 0.01857595730423836 24.086443572426962 0.033862507492393085 0.0228611478958948 28.816597158417128 -0.025020534620838367 0.013005723885169872 28.847457521280408 0.003231519250175556 -0.03295132059286887 11.051396081391118 2.6396231328060904 14.479287198849022 -69.91473135652815 12.371166204504226 -22.950465653318705 -5.227328140373357 -1.390057046334081 -84.35730285007156 -15.43250902060214 -0.4291219782681148 -2.1621810526094962 -0.5042903745634284 0.06918975590616813 -8.117308408611327 0.0024978227331618986 0.048254448577880464 44.534715254347155 -0.005774836455081267 0.012811061387284987 44.553523322073985 12.43798461910667 -0.042264626433996325 -0.048072689926476606 0.01889035364696896 0.0033711518421838194 0.006904759685973595 0.0256692436131856 0.003940006386281641 -0.008843465563135576 11.095426215504292 0.04951670144398319 -0.006608953851220609 -0.021400653598392824 0.01984701369589886 0.013565926725509703 0.04862703991198507 -0.015460804282789292 0.029459985231529474 4.773505893092592 0.02061035913185827 0.006691816576049983 -0.018940809102854853 0.010514689573606397 -0.029173923959202257 0.034336968299706394 0.007926231797991186 -0.01803995305242923 -5.627479063236974 0.028091331344777065 0.031819979036518974 -6.735582566896305 0.00035499125323508083 0.04916470294598681 -6.7150154626805705 -0.02867618241678446 0.048581263082953255 0.028971211443276502 0.019183401174695452 0.0003508872836049959 8.017811678331602 3.5051696347503007 -19.23370111841902 0.005249455130637402 10.40919896213323 0.059296947998814645 -5.622182277782838 -15.627894076560963 3.1789368651031342 0.048221056666779206 0.006874385169000042 -0.03466364573189849 0.009803914548793494 4.728889670403693 0.0395191533684123 12.47772038657516 -8.215997482975009 6.8892021701819735 -0.037741344726501896 46.41281015236023 -0.013455359795615447 -4.288263536958929 -14.772928224577646 -3.849975232603655 -0.015561285898722218 -0.034208603813273376 0.02287158389084186 0.01916346636693145 -10.756936921476907 0.01674902815757485 
0.04711304817930018 0.034357556560481756 -0.003659765661624891 0.028903074320284213 -0.04789886604592982 -0.025338004513835014 4.566773057782306 2.746967589186795 -2.110526263257525 -0.6760771893419751 3.510840377478693 0.3802189889471779 -0.6884425198346666 -1.360625440070661 0.6047802769565902 -0.44790209302728606 -0.5376393399739764 -0.3666690417284032 0.1333360792040154 13.701958013352483 -1.7552160012694105 0.4649196073766154 0.15735771221025288 -3.8843057993759222 1.0011774605511181 -15.775338011154284 -0.3686745911063268 -11.735794385482334 3.9203650509204606 -16.88360886756008 78.71002253036762 -5.080625682213652 24.22809051182183 13.549958026510769 3.271596863050683 84.60198447412739 12.342528563477742 -0.3190521148773902 -1.5104243746102985 4.5485152376263756 -0.13056729466957492 -1.6158052791804105 -0.006881718548707026 0.039497965133191495 -56.263324869376625 -0.026173137312818708 -0.03351579857297434 -56.25237756049411 -38.809114291777604 -0.02248128022446922 -0.025842288949906388 0.031045973872885806 0.03102432188652348 0.030576934347238946 -0.008195604515060453 0.012101349610575263 -0.028531763164078783 -36.699379956045114 -0.030170630915075776 -0.04787918192545655 0.029950454399266108 -0.022320403593992465 0.017655397081947 -0.018186201966422653 0.00173769253842584 0.030354425928822357 -19.708575271922445 -0.002498936594003588 0.0030740287558324226 -0.022283812204592673 0.02103192861603325 -0.026890646613740923 -0.01737645442435112 -0.044182882194896606 0.044157551407066134 24.02417780121844 -0.03201025583635475 -0.003347911844624954 28.8189100038623 -0.018554152727543807 0.01315096975249936 28.91277941375716 -0.011603025810641421 0.02322407928876751 11.954283808583902 2.70660192143047 14.290325429365808 -70.0154819166757 12.037341601853718 -27.492704343154845 -3.9509111470216243 -3.149540919966596 -89.36171958239424 -13.518479525856547 0.10068968014947305 -3.227662534473879 -0.5130254496549829 0.056111674368881904 -8.135535642785303 0.023774489234082735 0.023868673045931425 44.60131316594564 0.008064948913387307 0.013423645680044984 44.565727686220406 12.435181626274156 -0.0016660586573162242 -0.023644589284611515 0.036679975211391526 0.006988098204274921 0.020490833153254916 0.033615906433319145 0.0003668276596524586 0.009867061224430936 11.0894639928475 -0.017770168273069 0.027089751954134232 -0.025434579401353425 0.03515390623788404 -0.024164615746622625 -0.012310121741949153 -0.03345834157972883 0.0006632876642667053 4.7476028744167875 -0.031575133178059586 0.02241910582548882 0.015775945018959105 0.0487097597099658 -0.027417886432366183 -0.02698013051125884 0.02125832249441718 -0.01548702422057112 -5.60204683605697 -0.03278089616539319 -0.016286367891333763 -6.696761314588179 0.04400705204266964 0.015100158909576179 -6.708403705468377 -0.003573450168432763 -0.005435161873513334 0.028009680955095314 0.03522335210798426 0.027006791020987526 8.048516110322595 3.4611661471061166 -19.20599586822126 -0.04662706021411025 10.413364610850005 0.006748937795634378 -5.599737129160198 -15.641088298322979 3.168114415369129 0.044308266441059264 -0.028595317184662 -0.019661405799584093 0.006885819707529551 4.739759020204921 -0.027905511206831966 12.441430292507048 -8.228647937188743 6.932830659610125 0.029956858856686502 46.40294310547844 0.03081122529414737 -4.305620779221909 -14.708077605236364 -3.877276906689969 0.034873237485659854 -0.01649238349929957 0.044375463875243444 -0.04075910177204325 -10.781490975847952 0.026606900507469305 
0.022154945847961197 -0.017434242099329544 -0.007758724680937475 0.00033271621459157004 0.0092794120679798 -0.009789952847216427 4.672690086618454 2.6019776712522082 -2.1611698773551424 -0.738124683814135 3.5135472916732535 0.4184925452333872 -0.6088560823692359 -1.3985424971928815 0.5592707809532095 -0.553328454390198 -0.5531007247290441 -0.3677128699862115 0.031137862248856674 14.045917423401782 -1.48871959177175 0.38844222727054095 0.3501630497830932 -3.0551893069749663 0.972077077506184 -15.47577556529306 -0.31410833139566113 -12.126357393164605 4.051237001156708 -16.669586745062777 78.90224848208314 -5.474871619265724 27.093979597762758 14.19165346528769 2.7381894963900155 87.06727969550663 11.676920696263531 -0.31973291016396566 -1.3272868516184464 4.542647757358032 -0.12816873327856684 -1.6126665542996004 0.03489210623651821 0.006742484668816179 -56.241683970327585 0.023659858153284353 0.008398944514147058 -56.25624689292549 -38.756731881174716 -0.020433698195477294 -0.00923449640648402 -0.03198502935580167 0.031178963296059084 -0.021698501384683752 -0.0020372173913991245 -0.0019884015105609645 -0.04282747891924987 -36.73112022767466 0.022095675744295808 0.013966163851482454 0.03103210091973463 0.0485505273930526 -0.04198598100837381 -0.019191315872798258 -0.033793492637278356 -0.04704840322765401 -19.80287576377703 -0.03821123300272045 -0.021743151827115306 -0.015022378032223893 -0.025538486706619155 -0.013457980947473538 0.020611088633997816 -0.006549355018588598 0.007089491097505063 24.051442553394924 -0.0069469947285199455 -0.03077038714762928 28.869036878481054 0.02801388572294233 0.017960326933033743 28.83543936960491 0.019424744632012724 0.04762022717832715 12.559573072853988 2.917328120249806 14.190380743935172 -70.14554655251364 11.711592565657183 -31.794910132437348 -2.160874334924655 -4.580176439231035 -92.73599263503176 -11.667848425927701 0.9353050791963543 -4.304930833987099 -0.48424951157827645 0.028266452096384807 -8.123678587964644 0.011458734604863276 -0.023523430036448644 44.520199450182695 -0.04494924426538059 0.032575085495921904 44.5431684665573 12.453428262017004 0.02759542579939865 -0.02557277172479824 0.021905392429560522 -0.006127884323971965 0.004480722211468144 -0.02853964047690141 -0.018918439170071848 -0.00877751510023323 11.072440235637476 0.030483243457715685 -0.03882897513202398 0.011393636330701918 0.02366362787010138 0.022231609846795803 0.01911267776969761 0.015024232208997908 0.026130122304655223 4.749682590505065 -0.003267856473062965 -0.021106082607761215 0.00852368806006311 -0.025671741982359532 -0.035656248011774035 0.02573895771969152 -0.01672328471281781 -0.005744425029254125 -5.586378671503064 0.040768714125235014 0.024168934814847165 -6.709795579313016 0.007959138699737049 0.02451386438304241 -6.732346828818724 0.0007115184789570212 0.04194144877069418 0.006376966619131994 -0.023611172957210814 0.020056520804458737 8.03489521180981 3.516908501104741 -19.178206669249732 -0.041219439988162174 10.412665896202405 0.061700376250521924 -5.611584182492091 -15.652062776533004 3.1963790440065085 -0.027259543908293368 0.023064505619252957 -0.02331063593780829 0.018469435939931642 4.729006417503122 0.0044309759576430675 12.424570773701326 -8.28740645157374 6.840570027574547 0.01720602455847798 46.37419516954799 -0.031767064208434344 -4.358945400820479 -14.752723342817324 -3.808201272719467 -0.0059190241994798625 0.0019164487513402258 0.005341541291348944 -0.024648706407679986 -10.729481063487484 -0.03193412558305123 
0.03699929769988752 -0.012819125719134275 -0.016388374100872783 -0.04649401629627935 -0.017122061830500312 -0.02726436698000132 4.592449157109703 2.440345360312661 -2.1053710304738695 -0.6899143267972558 3.473340412219186 0.42038353466326167 -0.6051841634389463 -1.4656950083330076 0.3966856377910169 -0.6177592411591832 -0.5704085822069147 -0.3515981508162319 -0.033982967417990326 14.265852920857892 -1.3057019240547405 0.4432946649247577 0.5001049922679759 -2.3651025469036244 0.844572369286848 -15.308141100461885 -0.22150170551357212 -12.154998907692422 4.046331850058624 -16.404415797286237 79.07869270983612 -4.893069650989508 29.0418037127409 13.356828648405823 2.3124246257966807 88.83616265301235 11.06077446736466 -0.23769833585618147 -1.0086497676352288 4.501614399615073 -0.13285799503620016 -1.5675804820514618 -0.03724207583583858 0.026838683200752424 -56.26927804919936 -0.040873426069752375 -0.021318426014891527 -56.20207326523049 -38.74485968730312 0.011058926461490636 0.009065244690105738 0.04307904534200005 -0.009887032906282336 -0.04608340695869268 -0.03711547628213227 -0.02836261433601824 0.007906732360888149 -36.7080998843095 0.01838456111159561 -0.044814835255940676 -0.03600295114252885 -0.02775988424969183 0.018877425746129137 0.04575708894010001 0.03935488249879237 0.020798035771085313 -19.732357580395856 0.017603826264267316 0.00688367022323752 0.002541993696127577 0.04067909983349791 -0.006587847295460561 0.0415536645532112 0.03520015100767118 -0.023208299025524917 24.0711734950932 -0.019016736096835882 -0.04649809309806258 28.822906788336386 0.044326097659077274 0.02353379268450796 28.87577601455628 0.04126663268072178 -0.04068911784707566 13.104165329521166 3.0204951987295368 13.958031635213889 -70.63004773915634 11.765068188814533 -36.280155456772384 0.5481650955693038 -5.843708059443852 -95.21028206318684 -9.898822082831142 2.085956054974941 -5.553700268873612 -0.4917916840214918 0.03100822086121191 -8.108826949028499 0.006132383537157103 0.024129760244742053 44.6129807812926 -0.0069657843403490025 -0.01252228935738215 44.530903646899525 12.42701810419153 -0.025581955094177287 -0.020384711147879105 -0.026882004967039845 -0.02238823883209529 0.019616738586291774 -0.02124397712779435 0.031589115463989646 -0.04289776894326527 11.089178465095197 -0.003034746687771345 0.014943053656334896 0.03358332135676905 -0.03979838514011954 0.029021577894571965 -0.025679026981103432 0.031261912051348505 0.006603806792089155 4.773721604457987 0.011099995185375126 -0.02359930702507567 -0.0003008056082335829 -0.00316492252867337 -0.007644920478881121 -0.002785232742105365 -0.021685261738456987 -0.03527630032628803 -5.647128496328879 -0.015016868338806765 -0.004370654724433508 -6.745139090167792 -0.0043134453026318935 -0.03758113978252562 -6.707509882503587 -0.011474044982898194 -0.012567416052274434 -0.019084831834914533 -0.012070463781024712 0.037973143781561275 8.048443428134906 3.5107743994076426 -19.215060680272252 -0.010758144531096393 10.385963045478759 -0.025087710732282578 -5.65779404179972 -15.658145832174682 3.241689501962128 -0.004512504439487291 0.02763594056002369 -0.0021091989058830986 -0.022297098787422392 4.70005507169725 -0.002673868802693161 12.482799764442696 -8.22412030289698 6.869465721763963 -0.02787244592015082 46.36311539138881 0.008799059070529271 -4.371321654232838 -14.779488929915603 -3.8293171997777624 -0.010476626694348838 0.012299697882622316 0.04070805174124871 0.006007951614320174 -10.732348779261937 0.028629782008334173 
